Chivo-Italic.ufo
<glyph name="period" format="1">
  <advance width="238"/>
  <unicode hex="002E"/>
  <outline>
    <contour>
      <point x="44" y="111" type="line"/>
      <point x="29" y="0" type="line"/>
      <point x="130" y="0" type="line"/>
      <point x="145" y="111" type="line"/>
    </contour>
  </outline>
</glyph>
<glyph name="six" format="1">
  <advance width="615"/>
  <unicode hex="0036"/>
  <outline>
    <contour>
      <point x="238" y="696"/>
      <point x="121" y="593"/>
      <point x="103" y="465" type="curve" smooth="yes"/>
      <point x="72" y="252"/>
      <point x="66" y="207"/>
      <point x="66" y="191" type="curve" smooth="yes"/>
      <point x="66" y="184" type="line" smooth="yes"/>
      <point x="66" y="64"/>
      <point x="154" y="-10"/>
      <point x="273" y="-10" type="curve" smooth="yes"/>
      <point x="428" y="-10"/>
      <point x="543" y="89"/>
      <point x="543" y="254" type="curve" smooth="yes"/>
      <point x="543" y="359"/>
      <point x="461" y="432"/>
      <point x="351" y="432" type="curve" smooth="yes"/>
      <point x="287" y="432"/>
      <point x="230" y="407"/>
      <point x="187" y="366" type="curve"/>
      <point x="202" y="474" type="line" smooth="yes"/>
      <point x="212" y="547"/>
      <point x="282" y="607"/>
      <point x="354" y="607" type="curve" smooth="yes"/>
      <point x="426" y="607"/>
      <point x="469" y="565"/>
      <point x="469" y="496" type="curve" smooth="yes"/>
      <point x="469" y="485" type="line" smooth="yes"/>
      <point x="469" y="481"/>
      <point x="469" y="477"/>
      <point x="468" y="473" type="curve"/>
      <point x="566" y="473" type="line"/>
      <point x="567" y="480"/>
      <point x="568" y="486"/>
      <point x="568" y="492" type="curve" smooth="yes"/>
      <point x="568" y="510" type="line" smooth="yes"/>
      <point x="568" y="625"/>
      <point x="487" y="696"/>
      <point x="366" y="696" type="curve" smooth="yes"/>
    </contour>
    <contour>
      <point x="395" y="343"/>
      <point x="443" y="300"/>
      <point x="443" y="232" type="curve" smooth="yes"/>
      <point x="443" y="140"/>
      <point x="382" y="79"/>
      <point x="285" y="79" type="curve" smooth="yes"/>
      <point x="214" y="79"/>
      <point x="163" y="122"/>
      <point x="163" y="191" type="curve" smooth="yes"/>
      <point x="163" y="282"/>
      <point x="241" y="343"/>
      <point x="324" y="343" type="curve" smooth="yes"/>
    </contour>
  </outline>
</glyph>
<glyph name="A" format="1">
  <advance width="650"/>
  <unicode hex="0041"/>
  <outline>
    <contour>
      <point x="328" y="686" type="line"/>
      <point x="-36" y="0" type="line"/>
      <point x="58" y="0" type="line"/>
      <point x="136" y="149" type="line"/>
      <point x="464" y="149" type="line"/>
      <point x="501" y="0" type="line"/>
      <point x="607" y="0" type="line"/>
      <point x="436" y="686" type="line"/>
    </contour>
    <contour>
      <point x="443" y="238" type="line"/>
      <point x="184" y="238" type="line"/>
      <point x="357" y="568" type="line"/>
      <point x="363" y="568" type="line"/>
    </contour>
    <contour>
      <point x="585" y="10" type="move" name="ogonek"/>
    </contour>
    <contour>
      <point x="382" y="686" type="move" name="top"/>
    </contour>
  </outline>
</glyph>
<glyph name="C" format="1">
  <advance width="662"/>
  <unicode hex="0043"/>
  <outline>
    <contour>
      <point x="225" y="696"/>
      <point x="105" y="597"/>
      <point x="75" y="388" type="curve" smooth="yes"/>
      <point x="58" y="275"/>
      <point x="57" y="253"/>
      <point x="57" y="232" type="curve" smooth="yes"/>
      <point x="57" y="69"/>
      <point x="156" y="-10"/>
      <point x="301" y="-10" type="curve" smooth="yes"/>
      <point x="459" y="-10"/>
      <point x="577" y="74"/>
      <point x="604" y="261" type="curve"/>
      <point x="510" y="261" type="line"/>
      <point x="492" y="134"/>
      <point x="412" y="79"/>
      <point x="313" y="79" type="curve" smooth="yes"/>
      <point x="217" y="79"/>
      <point x="156" y="126"/>
      <point x="156" y="241" type="curve" smooth="yes"/>
      <point x="156" y="258"/>
      <point x="157" y="279"/>
      <point x="173" y="388" type="curve" smooth="yes"/>
      <point x="195" y="544"/>
      <point x="279" y="607"/>
      <point x="388" y="607" type="curve" smooth="yes"/>
      <point x="473" y="607"/>
      <point x="532" y="565"/>
      <point x="532" y="466" type="curve" smooth="yes"/>
      <point x="532" y="452"/>
      <point x="531" y="438"/>
      <point x="529" y="423" type="curve"/>
      <point x="627" y="423" type="line"/>
      <point x="630" y="442"/>
      <point x="631" y="460"/>
      <point x="631" y="477" type="curve" smooth="yes"/>
      <point x="631" y="624"/>
      <point x="533" y="696"/>
      <point x="400" y="696" type="curve" smooth="yes"/>
    </contour>
    <contour>
      <point x="381" y="686" type="move" name="top"/>
    </contour>
    <contour>
      <point x="331" y="0" type="move" name="bottom"/>
    </contour>
  </outline>
</glyph>
<glyph name="G" format="1">
  <advance width="675"/>
  <unicode hex="0047"/>
  <outline>
    <contour>
      <point x="221" y="696"/>
      <point x="105" y="597"/>
      <point x="75" y="388" type="curve" smooth="yes"/>
      <point x="58" y="275"/>
      <point x="57" y="253"/>
      <point x="57" y="232" type="curve" smooth="yes"/>
      <point x="57" y="69"/>
      <point x="156" y="-10"/>
      <point x="301" y="-10" type="curve" smooth="yes"/>
      <point x="382" y="-10"/>
      <point x="453" y="21"/>
      <point x="505" y="82" type="curve"/>
      <point x="506" y="35"/>
      <point x="510" y="8"/>
      <point x="513" y="0" type="curve"/>
      <point x="571" y="0" type="line"/>
      <point x="571" y="25"/>
      <point x="572" y="66"/>
      <point x="583" y="128" type="curve"/>
      <point x="616" y="362" type="line"/>
      <point x="326" y="362" type="line"/>
      <point x="314" y="274" type="line"/>
      <point x="508" y="274" type="line"/>
      <point x="506" y="261" type="line" smooth="yes"/>
      <point x="486" y="133"/>
      <point x="429" y="79"/>
      <point x="313" y="79" type="curve" smooth="yes"/>
      <point x="217" y="79"/>
      <point x="156" y="126"/>
      <point x="156" y="241" type="curve" smooth="yes"/>
      <point x="156" y="258"/>
      <point x="157" y="279"/>
      <point x="173" y="388" type="curve" smooth="yes"/>
      <point x="195" y="544"/>
      <point x="279" y="607"/>
      <point x="388" y="607" type="curve" smooth="yes"/>
      <point x="471" y="607"/>
      <point x="532" y="569"/>
      <point x="532" y="478" type="curve" smooth="yes"/>
      <point x="532" y="467"/>
      <point x="531" y="456"/>
      <point x="530" y="445" type="curve"/>
      <point x="628" y="445" type="line"/>
      <point x="630" y="460"/>
      <point x="631" y="474"/>
      <point x="631" y="489" type="curve" smooth="yes"/>
      <point x="631" y="627"/>
      <point x="530" y="696"/>
      <point x="400" y="696" type="curve" smooth="yes"/>
    </contour>
    <contour>
      <point x="388" y="686" type="move" name="top"/>
    </contour>
    <contour>
      <point x="338" y="0" type="move" name="bottom"/>
    </contour>
  </outline>
</glyph>
<glyph name="K" format="1">
  <advance width="621"/>
  <unicode hex="004B"/>
  <outline>
    <contour>
      <point x="544" y="686" type="line"/>
      <point x="196" y="329" type="line"/>
      <point x="246" y="686" type="line"/>
      <point x="148" y="686" type="line"/>
      <point x="51" y="0" type="line"/>
      <point x="149" y="0" type="line"/>
      <point x="178" y="206" type="line"/>
      <point x="290" y="308" type="line"/>
      <point x="454" y="0" type="line"/>
      <point x="568" y="0" type="line"/>
      <point x="362" y="383" type="line"/>
      <point x="657" y="686" type="line"/>
    </contour>
    <contour>
      <point x="371" y="686" type="move" name="top"/>
    </contour>
    <contour>
      <point x="311" y="0" type="move" name="bottom"/>
    </contour>
  </outline>
</glyph>
<glyph name="Q" format="1">
  <advance width="690"/>
  <unicode hex="0051"/>
  <outline>
    <contour>
      <point x="233" y="696"/>
      <point x="103" y="596"/>
      <point x="75" y="388" type="curve" smooth="yes"/>
      <point x="60" y="276"/>
      <point x="56" y="264"/>
      <point x="57" y="235" type="curve"/>
      <point x="57" y="85"/>
      <point x="140" y="5"/>
      <point x="263" y="-8" type="curve"/>
      <point x="263" y="-102"/>
      <point x="340" y="-145"/>
      <point x="424" y="-145" type="curve" smooth="yes"/>
      <point x="487" y="-145"/>
      <point x="534" y="-128"/>
      <point x="561" y="-112" type="curve"/>
      <point x="571" y="-42" type="line"/>
      <point x="558" y="-46" type="line" smooth="yes"/>
      <point x="534" y="-54"/>
      <point x="487" y="-70"/>
      <point x="450" y="-70" type="curve" smooth="yes"/>
      <point x="387" y="-70"/>
      <point x="363" y="-35"/>
      <point x="360" y="-6" type="curve"/>
      <point x="501" y="14"/>
      <point x="603" y="114"/>
      <point x="630" y="298" type="curve" smooth="yes"/>
      <point x="646" y="410"/>
      <point x="647" y="431"/>
      <point x="647" y="450" type="curve" smooth="yes"/>
      <point x="647" y="616"/>
      <point x="542" y="696"/>
      <point x="402" y="696" type="curve" smooth="yes"/>
    </contour>
    <contour>
      <point x="484" y="607"/>
      <point x="549" y="558"/>
      <point x="549" y="442" type="curve" smooth="yes"/>
      <point x="549" y="426"/>
      <point x="548" y="406"/>
      <point x="532" y="298" type="curve" smooth="yes"/>
      <point x="508" y="142"/>
      <point x="423" y="79"/>
      <point x="315" y="79" type="curve" smooth="yes"/>
      <point x="220" y="79"/>
      <point x="156" y="127"/>
      <point x="156" y="244" type="curve" smooth="yes"/>
      <point x="156" y="260"/>
      <point x="158" y="278"/>
      <point x="173" y="388" type="curve" smooth="yes"/>
      <point x="195" y="544"/>
      <point x="280" y="607"/>
      <point x="390" y="607" type="curve" smooth="yes"/>
    </contour>
  </outline>
</glyph>
<glyph name="V" format="1">
  <advance width="602"/>
  <unicode hex="0056"/>
  <outline>
    <contour>
      <point x="556" y="686" type="line"/>
      <point x="284" y="133" type="line"/>
      <point x="278" y="133" type="line"/>
      <point x="163" y="686" type="line"/>
      <point x="59" y="686" type="line"/>
      <point x="205" y="0" type="line"/>
      <point x="310" y="0" type="line"/>
      <point x="651" y="686" type="line"/>
    </contour>
  </outline>
</glyph>
<glyph name="Y" format="1">
  <advance width="570"/>
  <unicode hex="0059"/>
  <outline>
    <contour>
      <point x="528" y="686" type="line"/>
      <point x="302" y="367" type="line"/>
      <point x="298" y="367" type="line"/>
      <point x="160" y="686" type="line"/>
      <point x="49" y="686" type="line"/>
      <point x="231" y="265" type="line"/>
      <point x="193" y="0" type="line"/>
      <point x="291" y="0" type="line"/>
      <point x="329" y="265" type="line"/>
      <point x="629" y="686" type="line"/>
    </contour>
    <contour>
      <point x="344" y="686" type="move" name="top"/>
    </contour>
  </outline>
</glyph>
<glyph name="backslash" format="1">
  <advance width="593"/>
  <unicode hex="005C"/>
  <outline>
    <contour>
      <point x="68" y="686" type="line"/>
      <point x="434" y="-171" type="line"/>
      <point x="515" y="-171" type="line"/>
      <point x="147" y="686" type="line"/>
    </contour>
  </outline>
</glyph>
<glyph name="grave" format="1">
  <advance width="333"/>
  <unicode hex="0060"/>
  <outline>
    <contour>
      <point x="78" y="720" type="line"/>
      <point x="76" y="717" type="line"/>
      <point x="171" y="575" type="line"/>
      <point x="241" y="575" type="line"/>
      <point x="167" y="720" type="line"/>
    </contour>
    <contour>
      <point x="199" y="511" type="move" name="_top"/>
    </contour>
  </outline>
</glyph>
<glyph name="b" format="1">
  <advance width="582"/>
  <unicode hex="0062"/>
  <outline>
    <contour>
      <point x="143" y="720" type="line"/>
      <point x="42" y="0" type="line"/>
      <point x="78" y="0" type="line"/>
      <point x="122" y="81" type="line"/>
      <point x="152" y="20"/>
      <point x="205" y="-10"/>
      <point x="281" y="-10" type="curve" smooth="yes"/>
      <point x="466" y="-10"/>
      <point x="531" y="184"/>
      <point x="531" y="325" type="curve" smooth="yes"/>
      <point x="531" y="454"/>
      <point x="460" y="521"/>
      <point x="363" y="521" type="curve" smooth="yes"/>
      <point x="291" y="521"/>
      <point x="233" y="487"/>
      <point x="198" y="446" type="curve"/>
      <point x="237" y="720" type="line"/>
    </contour>
    <contour>
      <point x="392" y="446"/>
      <point x="436" y="414"/>
      <point x="436" y="318" type="curve" smooth="yes"/>
      <point x="436" y="151"/>
      <point x="374" y="65"/>
      <point x="274" y="65" type="curve" smooth="yes"/>
      <point x="207" y="65"/>
      <point x="165" y="97"/>
      <point x="165" y="193" type="curve" smooth="yes"/>
      <point x="165" y="313"/>
      <point x="204" y="446"/>
      <point x="327" y="446" type="curve" smooth="yes"/>
    </contour>
  </outline>
</glyph>
<glyph name="g" format="1">
  <advance width="583"/>
  <unicode hex="0067"/>
  <outline>
    <contour>
      <point x="124" y="521"/>
      <point x="44" y="368"/>
      <point x="44" y="208" type="curve" smooth="yes"/>
      <point x="44" y="85"/>
      <point x="117" y="20"/>
      <point x="215" y="20" type="curve" smooth="yes"/>
      <point x="287" y="20"/>
      <point x="344" y="52"/>
      <point x="379" y="95" type="curve"/>
      <point x="368" y="15" type="line" smooth="yes"/>
      <point x="358" y="-54"/>
      <point x="305" y="-111"/>
      <point x="223" y="-111" type="curve" smooth="yes"/>
      <point x="154" y="-111"/>
      <point x="114" y="-75"/>
      <point x="114" y="-19" type="curve"/>
      <point x="21" y="-19" type="line"/>
      <point x="21" y="-111"/>
      <point x="81" y="-186"/>
      <point x="213" y="-186" type="curve" smooth="yes"/>
      <point x="375" y="-186"/>
      <point x="449" y="-89"/>
      <point x="465" y="34" type="curve"/>
      <point x="532" y="511" type="line"/>
      <point x="496" y="511" type="line"/>
      <point x="451" y="430" type="line"/>
      <point x="422" y="491"/>
      <point x="369" y="521"/>
      <point x="292" y="521" type="curve" smooth="yes"/>
    </contour>
    <contour>
      <point x="366" y="446"/>
      <point x="409" y="417"/>
      <point x="409" y="326" type="curve" smooth="yes"/>
      <point x="409" y="219"/>
      <point x="367" y="95"/>
      <point x="250" y="95" type="curve" smooth="yes"/>
      <point x="184" y="95"/>
      <point x="140" y="127"/>
      <point x="140" y="217" type="curve" smooth="yes"/>
      <point x="140" y="394"/>
      <point x="219" y="446"/>
      <point x="300" y="446" type="curve" smooth="yes"/>
    </contour>
    <contour>
      <point x="292" y="511" type="move" name="top"/>
    </contour>
  </outline>
</glyph>
<glyph name="n" format="1">
  <advance width="593"/>
  <unicode hex="006E"/>
  <outline>
    <contour>
      <point x="304" y="521"/>
      <point x="240" y="497"/>
      <point x="184" y="436" type="curve"/>
      <point x="184" y="511" type="line"/>
      <point x="114" y="511" type="line"/>
      <point x="42" y="0" type="line"/>
      <point x="136" y="0" type="line"/>
      <point x="179" y="304" type="line" smooth="yes"/>
      <point x="190" y="384"/>
      <point x="264" y="446"/>
      <point x="335" y="446" type="curve" smooth="yes"/>
      <point x="391" y="446"/>
      <point x="428" y="420"/>
      <point x="428" y="356" type="curve" smooth="yes"/>
      <point x="428" y="340"/>
      <point x="415" y="253"/>
      <point x="404" y="167" type="curve"/>
      <point x="380" y="0" type="line"/>
      <point x="474" y="0" type="line"/>
      <point x="499" y="178" type="line" smooth="yes"/>
      <point x="512" y="268"/>
      <point x="525" y="364"/>
      <point x="525" y="380" type="curve" smooth="yes"/>
      <point x="525" y="478"/>
      <point x="458" y="521"/>
      <point x="367" y="521" type="curve" smooth="yes"/>
    </contour>
    <contour>
      <point x="337" y="511" type="move" name="top"/>
    </contour>
    <contour>
      <point x="258" y="0" type="move" name="bottom"/>
    </contour>
  </outline>
</glyph>
<glyph name="w" format="1">
  <advance width="809"/>
  <unicode hex="0077"/>
  <outline>
    <contour>
      <point x="726" y="511" type="line"/>
      <point x="553" y="137" type="line"/>
      <point x="549" y="137" type="line"/>
      <point x="482" y="511" type="line"/>
      <point x="390" y="511" type="line"/>
      <point x="217" y="137" type="line"/>
      <point x="213" y="137" type="line"/>
      <point x="146" y="511" type="line"/>
      <point x="50" y="511" type="line"/>
      <point x="146" y="0" type="line"/>
      <point x="244" y="0" type="line"/>
      <point x="410" y="357" type="line"/>
      <point x="414" y="357" type="line"/>
      <point x="482" y="0" type="line"/>
      <point x="580" y="0" type="line"/>
      <point x="818" y="511" type="line"/>
    </contour>
    <contour>
      <point x="435" y="511" type="move" name="top"/>
    </contour>
  </outline>
</glyph>
<glyph name="brokenbar" format="1">
  <advance width="269"/>
  <unicode hex="00A6"/>
  <outline>
    <contour>
      <point x="146" y="686" type="line"/>
      <point x="108" y="419" type="line"/>
      <point x="197" y="419" type="line"/>
      <point x="235" y="686" type="line"/>
    </contour>
    <contour>
      <point x="87" y="266" type="line"/>
      <point x="49" y="0" type="line"/>
      <point x="138" y="0" type="line"/>
      <point x="176" y="266" type="line"/>
    </contour>
  </outline>
</glyph>
<glyph name="copyright" format="1">
  <advance width="785"/>
  <unicode hex="00A9"/>
  <outline>
    <contour>
      <point x="203" y="696"/>
      <point x="46" y="539"/>
      <point x="46" y="344" type="curve" smooth="yes"/>
      <point x="46" y="147"/>
      <point x="203" y="-10"/>
      <point x="400" y="-10" type="curve" smooth="yes"/>
      <point x="595" y="-10"/>
      <point x="754" y="147"/>
      <point x="754" y="344" type="curve" smooth="yes"/>
      <point x="754" y="539"/>
      <point x="595" y="696"/>
      <point x="400" y="696" type="curve" smooth="yes"/>
    </contour>
    <contour>
      <point x="576" y="655"/>
      <point x="713" y="521"/>
      <point x="713" y="344" type="curve" smooth="yes"/>
      <point x="713" y="163"/>
      <point x="576" y="30"/>
      <point x="400" y="30" type="curve" smooth="yes"/>
      <point x="221" y="30"/>
      <point x="86" y="163"/>
      <point x="86" y="344" type="curve" smooth="yes"/>
      <point x="86" y="521"/>
      <point x="221" y="655"/>
      <point x="400" y="655" type="curve" smooth="yes"/>
    </contour>
    <contour>
      <point x="400" y="556" type="line" smooth="yes"/>
      <point x="308" y="556"/>
      <point x="231" y="501"/>
      <point x="231" y="386" type="curve" smooth="yes"/>
      <point x="231" y="300" type="line" smooth="yes"/>
      <point x="231" y="184"/>
      <point x="308" y="129"/>
      <point x="401" y="129" type="curve" smooth="yes"/>
      <point x="406" y="129" type="line" smooth="yes"/>
      <point x="497" y="129"/>
      <point x="568" y="184"/>
      <point x="568" y="296" type="curve"/>
      <point x="503" y="296" type="line"/>
      <point x="503" y="225"/>
      <point x="461" y="187"/>
      <point x="406" y="187" type="curve" smooth="yes"/>
      <point x="350" y="187"/>
      <point x="298" y="216"/>
      <point x="298" y="286" type="curve" smooth="yes"/>
      <point x="298" y="401" type="line" smooth="yes"/>
      <point x="298" y="468"/>
      <point x="347" y="499"/>
      <point x="403" y="499" type="curve" smooth="yes"/>
      <point x="453" y="499"/>
      <point x="501" y="468"/>
      <point x="501" y="401" type="curve" smooth="yes"/>
      <point x="501" y="388" type="line"/>
      <point x="568" y="388" type="line"/>
      <point x="568" y="504"/>
      <point x="497" y="556"/>
      <point x="405" y="556" type="curve" smooth="yes"/>
    </contour>
  </outline>
</glyph>
<glyph name="ordfeminine" format="1">
  <advance width="419"/>
  <unicode hex="00AA"/>
  <outline>
    <contour>
      <point x="151" y="696"/>
      <point x="83" y="626"/>
      <point x="83" y="494" type="curve" smooth="yes"/>
      <point x="83" y="410"/>
      <point x="128" y="373"/>
      <point x="189" y="373" type="curve" smooth="yes"/>
      <point x="232" y="373"/>
      <point x="262" y="390"/>
      <point x="289" y="418" type="curve"/>
      <point x="289" y="393"/>
      <point x="300" y="373"/>
      <point x="336" y="373" type="curve" smooth="yes"/>
      <point x="359" y="373"/>
      <point x="375" y="380"/>
      <point x="383" y="385" type="curve"/>
      <point x="388" y="427" type="line"/>
      <point x="381" y="423"/>
      <point x="368" y="418"/>
      <point x="359" y="418" type="curve" smooth="yes"/>
      <point x="350" y="418"/>
      <point x="345" y="424"/>
      <point x="345" y="435" type="curve" smooth="yes"/>
      <point x="345" y="437"/>
      <point x="364" y="581"/>
      <point x="380" y="690" type="curve"/>
      <point x="341" y="690" type="line"/>
      <point x="322" y="650" type="line"/>
      <point x="317" y="650" type="line"/>
      <point x="302" y="677"/>
      <point x="273" y="696"/>
      <point x="230" y="696" type="curve" smooth="yes"/>
    </contour>
    <contour>
      <point x="278" y="650"/>
      <point x="305" y="632"/>
      <point x="305" y="572" type="curve" smooth="yes"/>
      <point x="305" y="487"/>
      <point x="274" y="418"/>
      <point x="206" y="418" type="curve" smooth="yes"/>
      <point x="166" y="418"/>
      <point x="140" y="437"/>
      <point x="140" y="496" type="curve" smooth="yes"/>
      <point x="140" y="557"/>
      <point x="158" y="650"/>
      <point x="238" y="650" type="curve" smooth="yes"/>
    </contour>
  </outline>
</glyph>
<glyph name="guillemotleft" format="1">
  <advance width="458"/>
  <unicode hex="00AB"/>
  <outline>
    <contour>
      <point x="383" y="511" type="line"/>
      <point x="237" y="337" type="line"/>
      <point x="334" y="163" type="line"/>
      <point x="384" y="163" type="line"/>
      <point x="317" y="337" type="line"/>
      <point x="433" y="511" type="line"/>
    </contour>
    <contour>
      <point x="200" y="511" type="line"/>
      <point x="55" y="337" type="line"/>
      <point x="151" y="163" type="line"/>
      <point x="202" y="163" type="line"/>
      <point x="134" y="337" type="line"/>
      <point x="251" y="511" type="line"/>
    </contour>
  </outline>
</glyph>
<glyph name="uni00AD" format="1">
  <advance width="390"/>
  <unicode hex="00AD"/>
  <outline>
    <contour>
      <point x="72" y="319" type="line"/>
      <point x="60" y="221" type="line"/>
      <point x="311" y="221" type="line"/>
      <point x="324" y="319" type="line"/>
    </contour>
  </outline>
</glyph>
<glyph name="guillemotright" format="1">
  <advance width="460"/>
  <unicode hex="00BB"/>
  <outline>
    <contour>
      <point x="86" y="511" type="line"/>
      <point x="157" y="337" type="line"/>
      <point x="37" y="163" type="line"/>
      <point x="88" y="163" type="line"/>
      <point x="237" y="337" type="line"/>
      <point x="137" y="511" type="line"/>
    </contour>
    <contour>
      <point x="269" y="511" type="line"/>
      <point x="339" y="337" type="line"/>
      <point x="220" y="163" type="line"/>
      <point x="270" y="163" type="line"/>
      <point x="418" y="337" type="line"/>
      <point x="319" y="511" type="line"/>
    </contour>
  </outline>
</glyph>
<glyph name="Iacute" format="1">
  <advance width="365"/>
  <unicode hex="00CD"/>
  <outline>
    <contour>
      <point x="109" y="686" type="line"/>
      <point x="96" y="597" type="line"/>
      <point x="176" y="597" type="line"/>
      <point x="105" y="89" type="line"/>
      <point x="25" y="89" type="line"/>
      <point x="12" y="0" type="line"/>
      <point x="270" y="0" type="line"/>
      <point x="283" y="89" type="line"/>
      <point x="203" y="89" type="line"/>
      <point x="274" y="597" type="line"/>
      <point x="354" y="597" type="line"/>
      <point x="367" y="686" type="line"/>
    </contour>
    <contour>
      <point x="317" y="895" type="line"/>
      <point x="202" y="750" type="line"/>
      <point x="271" y="750" type="line"/>
      <point x="407" y="891" type="line"/>
      <point x="407" y="895" type="line"/>
    </contour>
  </outline>
</glyph>
<glyph name="Odieresis" format="1">
  <advance width="690"/>
  <unicode hex="00D6"/>
  <outline>
    <contour>
      <point x="233" y="696"/>
      <point x="103" y="596"/>
      <point x="75" y="388" type="curve" smooth="yes"/>
      <point x="60" y="276"/>
      <point x="56" y="264"/>
      <point x="57" y="235" type="curve"/>
      <point x="57" y="70"/>
      <point x="162" y="-10"/>
      <point x="303" y="-10" type="curve" smooth="yes"/>
      <point x="474" y="-10"/>
      <point x="601" y="90"/>
      <point x="630" y="298" type="curve" smooth="yes"/>
      <point x="646" y="410"/>
      <point x="647" y="431"/>
      <point x="647" y="450" type="curve" smooth="yes"/>
      <point x="647" y="616"/>
      <point x="542" y="696"/>
      <point x="402" y="696" type="curve" smooth="yes"/>
    </contour>
    <contour>
      <point x="484" y="607"/>
      <point x="549" y="558"/>
      <point x="549" y="442" type="curve" smooth="yes"/>
      <point x="549" y="426"/>
      <point x="548" y="406"/>
      <point x="532" y="298" type="curve" smooth="yes"/>
      <point x="508" y="142"/>
      <point x="423" y="79"/>
      <point x="315" y="79" type="curve" smooth="yes"/>
      <point x="220" y="79"/>
      <point x="156" y="127"/>
      <point x="156" y="244" type="curve" smooth="yes"/>
      <point x="156" y="260"/>
      <point x="158" y="278"/>
      <point x="173" y="388" type="curve" smooth="yes"/>
      <point x="195" y="544"/>
      <point x="280" y="607"/>
      <point x="390" y="607" type="curve" smooth="yes"/>
    </contour>
    <contour>
      <point x="288" y="848" type="line"/>
      <point x="275" y="750" type="line"/>
      <point x="365" y="750" type="line"/>
      <point x="378" y="848" type="line"/>
    </contour>
    <contour>
      <point x="476" y="848" type="line"/>
      <point x="463" y="750" type="line"/>
      <point x="554" y="750" type="line"/>
      <point x="567" y="848" type="line"/>
    </contour>
  </outline>
</glyph>
<glyph name="Thorn" format="1">
  <advance width="633"/>
  <unicode hex="00DE"/>
  <outline>
    <contour>
      <point x="148" y="686" type="line"/>
      <point x="51" y="0" type="line"/>
      <point x="149" y="0" type="line"/>
      <point x="172" y="162" type="line"/>
      <point x="370" y="162" type="line" smooth="yes"/>
      <point x="491" y="162"/>
      <point x="605" y="246"/>
      <point x="605" y="393" type="curve" smooth="yes"/>
      <point x="605" y="496"/>
      <point x="529" y="562"/>
      <point x="426" y="562" type="curve" smooth="yes"/>
      <point x="228" y="562" type="line"/>
      <point x="246" y="686" type="line"/>
    </contour>
    <contour>
      <point x="465" y="473"/>
      <point x="506" y="431"/>
      <point x="506" y="378" type="curve" smooth="yes"/>
      <point x="506" y="310"/>
      <point x="443" y="251"/>
      <point x="374" y="251" type="curve" smooth="yes"/>
      <point x="185" y="251" type="line"/>
      <point x="216" y="473" type="line"/>
      <point x="405" y="473" type="line" smooth="yes"/>
    </contour>
  </outline>
</glyph>
<glyph name="ae" format="1">
  <advance width="895"/>
  <unicode hex="00E6"/>
  <outline>
    <contour>
      <point x="653" y="521" type="line" smooth="yes"/>
      <point x="586" y="521"/>
      <point x="528" y="500"/>
      <point x="481" y="457" type="curve"/>
      <point x="456" y="498"/>
      <point x="402" y="521"/>
      <point x="317" y="521" type="curve" smooth="yes"/>
      <point x="308" y="521" type="line" smooth="yes"/>
      <point x="176" y="521"/>
      <point x="76" y="454"/>
      <point x="76" y="354" type="curve"/>
      <point x="168" y="354" type="line"/>
      <point x="170" y="366" type="line" smooth="yes"/>
      <point x="173" y="380"/>
      <point x="185" y="446"/>
      <point x="295" y="446" type="curve" smooth="yes"/>
      <point x="385" y="446"/>
      <point x="400" y="408"/>
      <point x="400" y="374" type="curve" smooth="yes"/>
      <point x="400" y="368" type="line" smooth="yes"/>
      <point x="400" y="362"/>
      <point x="399" y="346"/>
      <point x="393" y="307" type="curve"/>
      <point x="186" y="307"/>
      <point x="25" y="285"/>
      <point x="25" y="117" type="curve" smooth="yes"/>
      <point x="25" y="21"/>
      <point x="94" y="-10"/>
      <point x="173" y="-10" type="curve" smooth="yes"/>
      <point x="277" y="-10"/>
      <point x="341" y="29"/>
      <point x="397" y="101" type="curve"/>
      <point x="428" y="29"/>
      <point x="492" y="-10"/>
      <point x="581" y="-10" type="curve" smooth="yes"/>
      <point x="585" y="-10" type="line" smooth="yes"/>
      <point x="708" y="-10"/>
      <point x="811" y="67"/>
      <point x="827" y="190" type="curve"/>
      <point x="738" y="190" type="line"/>
      <point x="732" y="157"/>
      <point x="708" y="65"/>
      <point x="595" y="65" type="curve" smooth="yes"/>
      <point x="507" y="65"/>
      <point x="474" y="123"/>
      <point x="474" y="202" type="curve" smooth="yes"/>
      <point x="474" y="213"/>
      <point x="475" y="223"/>
      <point x="476" y="234" type="curve"/>
      <point x="833" y="234" type="line"/>
      <point x="845" y="297"/>
      <point x="846" y="332"/>
      <point x="846" y="344" type="curve" smooth="yes"/>
      <point x="846" y="455"/>
      <point x="773" y="521"/>
      <point x="660" y="521" type="curve" smooth="yes"/>
    </contour>
    <contour>
      <point x="380" y="214" type="line"/>
      <point x="367" y="120"/>
      <point x="287" y="65"/>
      <point x="216" y="65" type="curve" smooth="yes"/>
      <point x="149" y="65"/>
      <point x="120" y="79"/>
      <point x="120" y="135" type="curve" smooth="yes"/>
      <point x="120" y="218"/>
      <point x="226" y="234"/>
      <point x="382" y="234" type="curve"/>
    </contour>
    <contour>
      <point x="708" y="446"/>
      <point x="754" y="411"/>
      <point x="754" y="343" type="curve" smooth="yes"/>
      <point x="754" y="335"/>
      <point x="754" y="327"/>
      <point x="751" y="307" type="curve"/>
      <point x="489" y="307" type="line"/>
      <point x="512" y="400"/>
      <point x="569" y="446"/>
      <point x="645" y="446" type="curve" smooth="yes"/>
    </contour>
    <contour>
      <point x="498" y="511" type="move" name="top"/>
    </contour>
  </outline>
</glyph>
<glyph name="ccedilla" format="1">
  <advance width="546"/>
  <unicode hex="00E7"/>
  <outline>
    <contour>
      <point x="309" y="521" type="line" smooth="yes"/>
      <point x="124" y="521"/>
      <point x="42" y="366"/>
      <point x="42" y="191" type="curve" smooth="yes"/>
      <point x="42" y="63"/>
      <point x="120" y="-10"/>
      <point x="235" y="-10" type="curve" smooth="yes"/>
      <point x="243" y="-10" type="line" smooth="yes"/>
      <point x="376" y="-10"/>
      <point x="465" y="64"/>
      <point x="484" y="200" type="curve"/>
      <point x="394" y="200" type="line"/>
      <point x="383" y="121"/>
      <point x="337" y="65"/>
      <point x="252" y="65" type="curve" smooth="yes"/>
      <point x="180" y="65"/>
      <point x="135" y="104"/>
      <point x="135" y="192" type="curve" smooth="yes"/>
      <point x="135" y="303"/>
      <point x="168" y="446"/>
      <point x="301" y="446" type="curve" smooth="yes"/>
      <point x="374" y="446"/>
      <point x="408" y="400"/>
      <point x="408" y="337" type="curve" smooth="yes"/>
      <point x="408" y="328"/>
      <point x="407" y="319"/>
      <point x="406" y="310" type="curve"/>
      <point x="499" y="310" type="line"/>
      <point x="501" y="323"/>
      <point x="502" y="335"/>
      <point x="502" y="346" type="curve" smooth="yes"/>
      <point x="502" y="454"/>
      <point x="429" y="521"/>
      <point x="317" y="521" type="curve" smooth="yes"/>
    </contour>
    <contour>
      <point x="204" y="-17" type="line"/>
      <point x="198" y="-60" type="line"/>
      <point x="219" y="-60" type="line" smooth="yes"/>
      <point x="246" y="-60"/>
      <point x="265" y="-72"/>
      <point x="265" y="-95" type="curve" smooth="yes"/>
      <point x="265" y="-131"/>
      <point x="234" y="-146"/>
      <point x="202" y="-146" type="curve" smooth="yes"/>
      <point x="159" y="-146"/>
      <point x="132" y="-131"/>
      <point x="123" y="-126" type="curve"/>
      <point x="107" y="-175" type="line"/>
      <point x="132" y="-190"/>
      <point x="167" y="-197"/>
      <point x="199" y="-197" type="curve" smooth="yes"/>
      <point x="245" y="-197"/>
      <point x="328" y="-176"/>
      <point x="328" y="-90" type="curve" smooth="yes"/>
      <point x="328" y="-32"/>
      <point x="279" y="-17"/>
      <point x="228" y="-17" type="curve" smooth="yes"/>
    </contour>
  </outline>
</glyph>
<glyph name="eacute" format="1">
  <advance width="556"/>
  <unicode hex="00E9"/>
  <outline>
    <contour>
      <point x="314" y="521" type="line" smooth="yes"/>
      <point x="129" y="521"/>
      <point x="41" y="366"/>
      <point x="41" y="193" type="curve" smooth="yes"/>
      <point x="41" y="62"/>
      <point x="121" y="-10"/>
      <point x="242" y="-10" type="curve" smooth="yes"/>
      <point x="246" y="-10" type="line" smooth="yes"/>
      <point x="383" y="-10"/>
      <point x="471" y="66"/>
      <point x="488" y="190" type="curve"/>
      <point x="399" y="190" type="line"/>
      <point x="393" y="157"/>
      <point x="369" y="65"/>
      <point x="256" y="65" type="curve" smooth="yes"/>
      <point x="168" y="65"/>
      <point x="135" y="123"/>
      <point x="135" y="202" type="curve" smooth="yes"/>
      <point x="135" y="213"/>
      <point x="136" y="223"/>
      <point x="137" y="234" type="curve"/>
      <point x="494" y="234" type="line"/>
      <point x="504" y="294"/>
      <point x="507" y="321"/>
      <point x="507" y="333" type="curve" smooth="yes"/>
      <point x="507" y="344" type="line" smooth="yes"/>
      <point x="507" y="455"/>
      <point x="434" y="521"/>
      <point x="321" y="521" type="curve" smooth="yes"/>
    </contour>
    <contour>
      <point x="369" y="446"/>
      <point x="415" y="411"/>
      <point x="415" y="343" type="curve" smooth="yes"/>
      <point x="415" y="335"/>
      <point x="415" y="327"/>
      <point x="412" y="307" type="curve"/>
      <point x="150" y="307" type="line"/>
      <point x="173" y="400"/>
      <point x="230" y="446"/>
      <point x="306" y="446" type="curve" smooth="yes"/>
    </contour>
    <contour>
      <point x="390" y="720" type="line"/>
      <point x="275" y="575" type="line"/>
      <point x="344" y="575" type="line"/>
      <point x="480" y="716" type="line"/>
      <point x="480" y="720" type="line"/>
    </contour>
  </outline>
</glyph>
<glyph name="dotlessi" format="1">
  <advance width="261"/>
  <unicode hex="0131"/>
  <outline>
    <contour>
      <point x="114" y="511" type="line"/>
      <point x="43" y="0" type="line"/>
      <point x="137" y="0" type="line"/>
      <point x="208" y="511" type="line"/>
    </contour>
    <contour>
      <point x="135" y="10" type="move" name="ogonek"/>
    </contour>
    <contour>
      <point x="161" y="511" type="move" name="top"/>
    </contour>
  </outline>
</glyph>
<glyph name="scaron" format="1">
  <advance width="536"/>
  <unicode hex="0161"/>
  <outline>
    <contour>
      <point x="302" y="521" type="line" smooth="yes"/>
      <point x="153" y="521"/>
      <point x="69" y="458"/>
      <point x="69" y="355" type="curve" smooth="yes"/>
      <point x="69" y="180"/>
      <point x="371" y="261"/>
      <point x="371" y="147" type="curve" smooth="yes"/>
      <point x="371" y="93"/>
      <point x="311" y="65"/>
      <point x="239" y="65" type="curve" smooth="yes"/>
      <point x="171" y="65"/>
      <point x="119" y="86"/>
      <point x="119" y="137" type="curve" smooth="yes"/>
      <point x="119" y="144" type="line" smooth="yes"/>
      <point x="119" y="147"/>
      <point x="120" y="153"/>
      <point x="121" y="160" type="curve"/>
      <point x="28" y="160" type="line"/>
      <point x="28" y="157"/>
      <point x="23" y="144"/>
      <point x="23" y="121" type="curve" smooth="yes"/>
      <point x="23" y="53"/>
      <point x="79" y="-10"/>
      <point x="211" y="-10" type="curve" smooth="yes"/>
      <point x="226" y="-10" type="line" smooth="yes"/>
      <point x="359" y="-10"/>
      <point x="468" y="35"/>
      <point x="468" y="168" type="curve" smooth="yes"/>
      <point x="468" y="343"/>
      <point x="166" y="269"/>
      <point x="166" y="371" type="curve" smooth="yes"/>
      <point x="166" y="398"/>
      <point x="186" y="446"/>
      <point x="288" y="446" type="curve" smooth="yes"/>
      <point x="367" y="446"/>
      <point x="392" y="416"/>
      <point x="392" y="383" type="curve" smooth="yes"/>
      <point x="392" y="378"/>
      <point x="390" y="370"/>
      <point x="390" y="364" type="curve"/>
      <point x="483" y="364" type="line"/>
      <point x="486" y="373"/>
      <point x="487" y="387"/>
      <point x="487" y="398" type="curve" smooth="yes"/>
      <point x="487" y="466"/>
      <point x="423" y="521"/>
      <point x="311" y="521" type="curve" smooth="yes"/>
    </contour>
    <contour>
      <point x="422" y="720" type="line"/>
      <point x="315" y="631" type="line"/>
      <point x="233" y="720" type="line"/>
      <point x="153" y="720" type="line"/>
      <point x="268" y="575" type="line"/>
      <point x="346" y="575" type="line"/>
      <point x="502" y="720" type="line"/>
    </contour>
  </outline>
</glyph>
<glyph name="ring" format="1">
  <advance width="340"/>
  <unicode hex="02DA"/>
  <outline>
    <contour>
      <point x="119" y="747"/>
      <point x="65" y="703"/>
      <point x="65" y="639" type="curve" smooth="yes"/>
      <point x="65" y="583"/>
      <point x="105" y="545"/>
      <point x="161" y="545" type="curve" smooth="yes"/>
      <point x="217" y="545"/>
      <point x="270" y="593"/>
      <point x="270" y="653" type="curve" smooth="yes"/>
      <point x="270" y="708"/>
      <point x="230" y="747"/>
      <point x="174" y="747" type="curve" smooth="yes"/>
    </contour>
    <contour>
      <point x="203" y="706"/>
      <point x="225" y="681"/>
      <point x="225" y="650" type="curve" smooth="yes"/>
      <point x="225" y="614"/>
      <point x="195" y="586"/>
      <point x="164" y="586" type="curve" smooth="yes"/>
      <point x="132" y="586"/>
      <point x="110" y="611"/>
      <point x="110" y="642" type="curve" smooth="yes"/>
      <point x="110" y="679"/>
      <point x="139" y="706"/>
      <point x="171" y="706" type="curve" smooth="yes"/>
    </contour>
    <contour>
      <point x="168" y="511" type="move" name="_top"/>
    </contour>
  </outline>
</glyph>
<glyph name="perthousand" format="1">
  <advance width="1034"/>
  <unicode hex="2030"/>
  <outline>
    <contour>
      <point x="584" y="686" type="line"/>
      <point x="69" y="0" type="line"/>
      <point x="139" y="0" type="line"/>
      <point x="652" y="686" type="line"/>
    </contour>
    <contour>
      <point x="210" y="686" type="line" smooth="yes"/>
      <point x="126" y="686"/>
      <point x="81" y="632"/>
      <point x="72" y="565" type="curve" smooth="yes"/>
      <point x="57" y="451"/>
      <point x="54" y="449"/>
      <point x="55" y="438" type="curve"/>
      <point x="55" y="381"/>
      <point x="94" y="337"/>
      <point x="161" y="337" type="curve" smooth="yes"/>
      <point x="168" y="337" type="line" smooth="yes"/>
      <point x="252" y="337"/>
      <point x="296" y="391"/>
      <point x="306" y="458" type="curve" smooth="yes"/>
      <point x="323" y="570"/>
      <point x="321" y="578"/>
      <point x="322" y="583" type="curve"/>
      <point x="322" y="642"/>
      <point x="284" y="686"/>
      <point x="217" y="686" type="curve" smooth="yes"/>
    </contour>
    <contour>
      <point x="241" y="631"/>
      <point x="259" y="609"/>
      <point x="259" y="581" type="curve" smooth="yes"/>
      <point x="259" y="570"/>
      <point x="257" y="574"/>
      <point x="241" y="451" type="curve" smooth="yes"/>
      <point x="236" y="418"/>
      <point x="210" y="392"/>
      <point x="172" y="392" type="curve" smooth="yes"/>
      <point x="137" y="392"/>
      <point x="119" y="413"/>
      <point x="119" y="441" type="curve" smooth="yes"/>
      <point x="119" y="446"/>
      <point x="118" y="447"/>
      <point x="137" y="572" type="curve" smooth="yes"/>
      <point x="142" y="605"/>
      <point x="165" y="631"/>
      <point x="206" y="631" type="curve" smooth="yes"/>
    </contour>
    <contour>
      <point x="552" y="348" type="line" smooth="yes"/>
      <point x="468" y="348"/>
      <point x="423" y="294"/>
      <point x="414" y="227" type="curve" smooth="yes"/>
      <point x="399" y="113"/>
      <point x="396" y="111"/>
      <point x="397" y="100" type="curve"/>
      <point x="397" y="43"/>
      <point x="436" y="-1"/>
      <point x="503" y="-1" type="curve" smooth="yes"/>
      <point x="510" y="-1" type="line" smooth="yes"/>
      <point x="594" y="-1"/>
      <point x="638" y="53"/>
      <point x="648" y="120" type="curve" smooth="yes"/>
      <point x="665" y="232"/>
      <point x="663" y="240"/>
      <point x="664" y="245" type="curve"/>
      <point x="664" y="304"/>
      <point x="626" y="348"/>
      <point x="559" y="348" type="curve" smooth="yes"/>
    </contour>
    <contour>
      <point x="583" y="293"/>
      <point x="601" y="271"/>
      <point x="601" y="243" type="curve" smooth="yes"/>
      <point x="601" y="232"/>
      <point x="599" y="236"/>
      <point x="583" y="113" type="curve" smooth="yes"/>
      <point x="578" y="80"/>
      <point x="552" y="54"/>
      <point x="514" y="54" type="curve" smooth="yes"/>
      <point x="479" y="54"/>
      <point x="461" y="75"/>
      <point x="461" y="103" type="curve" smooth="yes"/>
      <point x="461" y="108"/>
      <point x="460" y="109"/>
      <point x="479" y="234" type="curve" smooth="yes"/>
      <point x="484" y="267"/>
      <point x="507" y="293"/>
      <point x="548" y="293" type="curve" smooth="yes"/>
    </contour>
    <contour>
      <point x="885" y="348" type="line" smooth="yes"/>
      <point x="801" y="348"/>
      <point x="756" y="294"/>
      <point x="747" y="227" type="curve" smooth="yes"/>
      <point x="732" y="113"/>
      <point x="729" y="111"/>
      <point x="730" y="100" type="curve"/>
      <point x="730" y="43"/>
      <point x="769" y="-1"/>
      <point x="836" y="-1" type="curve" smooth="yes"/>
      <point x="843" y="-1" type="line" smooth="yes"/>
      <point x="927" y="-1"/>
      <point x="971" y="53"/>
      <point x="981" y="120" type="curve" smooth="yes"/>
      <point x="998" y="232"/>
      <point x="996" y="240"/>
      <point x="997" y="245" type="curve"/>
      <point x="997" y="304"/>
      <point x="959" y="348"/>
      <point x="892" y="348" type="curve" smooth="yes"/>
    </contour>
    <contour>
      <point x="916" y="293"/>
      <point x="934" y="271"/>
      <point x="934" y="243" type="curve" smooth="yes"/>
      <point x="934" y="232"/>
      <point x="932" y="236"/>
      <point x="916" y="113" type="curve" smooth="yes"/>
      <point x="911" y="80"/>
      <point x="885" y="54"/>
      <point x="847" y="54" type="curve" smooth="yes"/>
      <point x="812" y="54"/>
      <point x="794" y="75"/>
      <point x="794" y="103" type="curve" smooth="yes"/>
      <point x="794" y="108"/>
      <point x="793" y="109"/>
      <point x="812" y="234" type="curve" smooth="yes"/>
      <point x="817" y="267"/>
      <point x="840" y="293"/>
      <point x="881" y="293" type="curve" smooth="yes"/>
    </contour>
  </outline>
</glyph>
<glyph name="partialdiff" format="1">
  <advance width="568"/>
  <unicode hex="2202"/>
  <outline>
    <contour>
      <point x="230" y="696" type="line"/>
      <point x="218" y="610" type="line"/>
      <point x="316" y="610" type="line" smooth="yes"/>
      <point x="385" y="610"/>
      <point x="433" y="555"/>
      <point x="433" y="494" type="curve" smooth="yes"/>
      <point x="433" y="486" type="line" smooth="yes"/>
      <point x="433" y="483"/>
      <point x="433" y="480"/>
      <point x="432" y="477" type="curve" smooth="yes"/>
      <point x="415" y="357" type="line"/>
      <point x="384" y="405"/>
      <point x="326" y="431"/>
      <point x="266" y="431" type="curve" smooth="yes"/>
      <point x="134" y="431"/>
      <point x="16" y="332"/>
      <point x="16" y="181" type="curve" smooth="yes"/>
      <point x="16" y="64"/>
      <point x="99" y="-10"/>
      <point x="219" y="-10" type="curve" smooth="yes"/>
      <point x="227" y="-10" type="line" smooth="yes"/>
      <point x="375" y="-10"/>
      <point x="472" y="82"/>
      <point x="492" y="221" type="curve" smooth="yes"/>
      <point x="527" y="464" type="line" smooth="yes"/>
      <point x="529" y="477"/>
      <point x="530" y="489"/>
      <point x="530" y="501" type="curve" smooth="yes"/>
      <point x="530" y="617"/>
      <point x="449" y="696"/>
      <point x="333" y="696" type="curve" smooth="yes"/>
    </contour>
    <contour>
      <point x="350" y="358"/>
      <point x="398" y="312"/>
      <point x="398" y="245" type="curve" smooth="yes"/>
      <point x="398" y="152"/>
      <point x="335" y="72"/>
      <point x="235" y="72" type="curve" smooth="yes"/>
      <point x="159" y="72"/>
      <point x="110" y="118"/>
      <point x="110" y="185" type="curve" smooth="yes"/>
      <point x="110" y="277"/>
      <point x="173" y="358"/>
      <point x="274" y="358" type="curve" smooth="yes"/>
    </contour>
  </outline>
</glyph>
<glyph name="infinity" format="1">
  <advance width="766"/>
  <unicode hex="221E"/>
  <outline>
    <contour>
      <point x="508" y="448"/>
      <point x="453" y="386"/>
      <point x="394" y="333" type="curve"/>
      <point x="351" y="397"/>
      <point x="301" y="448"/>
      <point x="224" y="448" type="curve" smooth="yes"/>
      <point x="111" y="448"/>
      <point x="35" y="366"/>
      <point x="35" y="254" type="curve" smooth="yes"/>
      <point x="35" y="170"/>
      <point x="92" y="113"/>
      <point x="169" y="113" type="curve" smooth="yes"/>
      <point x="252" y="113"/>
      <point x="313" y="168"/>
      <point x="374" y="229" type="curve"/>
      <point x="433" y="142"/>
      <point x="483" y="113"/>
      <point x="543" y="113" type="curve" smooth="yes"/>
      <point x="655" y="113"/>
      <point x="729" y="211"/>
      <point x="729" y="311" type="curve" smooth="yes"/>
      <point x="729" y="391"/>
      <point x="678" y="448"/>
      <point x="595" y="448" type="curve" smooth="yes"/>
    </contour>
    <contour>
      <point x="275" y="386"/>
      <point x="320" y="332"/>
      <point x="349" y="276" type="curve"/>
      <point x="302" y="231"/>
      <point x="251" y="176"/>
      <point x="186" y="176" type="curve" smooth="yes"/>
      <point x="131" y="176"/>
      <point x="98" y="214"/>
      <point x="98" y="262" type="curve" smooth="yes"/>
      <point x="98" y="331"/>
      <point x="149" y="386"/>
      <point x="210" y="386" type="curve" smooth="yes"/>
    </contour>
    <contour>
      <point x="632" y="386"/>
      <point x="664" y="352"/>
      <point x="664" y="299" type="curve" smooth="yes"/>
      <point x="664" y="247"/>
      <point x="626" y="176"/>
      <point x="555" y="176" type="curve" smooth="yes"/>
      <point x="504" y="176"/>
      <point x="471" y="206"/>
      <point x="418" y="282" type="curve"/>
      <point x="455" y="316"/>
      <point x="518" y="386"/>
      <point x="581" y="386" type="curve" smooth="yes"/>
    </contour>
  </outline>
</glyph>
<glyph name="lessequal" format="1">
  <advance width="615"/>
  <unicode hex="2264"/>
  <outline>
    <contour>
      <point x="414" y="469"/>
      <point x="241" y="417"/>
      <point x="62" y="365" type="curve"/>
      <point x="47" y="258" type="line"/>
      <point x="211" y="207"/>
      <point x="371" y="156"/>
      <point x="535" y="104" type="curve"/>
      <point x="547" y="194" type="line"/>
      <point x="410" y="233"/>
      <point x="272" y="272"/>
      <point x="135" y="312" type="curve"/>
      <point x="580" y="430" type="line"/>
      <point x="593" y="520" type="line"/>
    </contour>
    <contour>
      <point x="22" y="83" type="line"/>
      <point x="10" y="0" type="line"/>
      <point x="520" y="0" type="line"/>
      <point x="532" y="83" type="line"/>
    </contour>
  </outline>
</glyph>
